<svg id="sbk_logo" width="100%" height="100%" viewBox="0 0 400 400" version="1.1" xmlns="http://www.w3.org/2000/svg">
    <g class="logo_group">
        <path class="logo_character logo_character_s" d="M120.058,164.017c3.451,3.254 7.395,5.891 11.832,7.913c4.437,2.021 8.874,3.032 13.311,3.032c5.522,0 9.713,-1.134 12.572,-3.402c2.86,-2.268 4.289,-5.275 4.289,-9.022c0,-1.972 -0.369,-3.648 -1.109,-5.029c-0.739,-1.38 -1.775,-2.588 -3.106,-3.624c-1.331,-1.035 -2.909,-1.996 -4.733,-2.884c-1.824,-0.887 -3.821,-1.775 -5.99,-2.662l-13.311,-5.768c-2.367,-0.986 -4.709,-2.219 -7.026,-3.698c-2.317,-1.479 -4.412,-3.254 -6.286,-5.324c-1.873,-2.071 -3.377,-4.487 -4.511,-7.248c-1.134,-2.761 -1.701,-5.916 -1.701,-9.466c0,-3.845 0.814,-7.42 2.441,-10.723c1.627,-3.303 3.87,-6.187 6.729,-8.652c2.86,-2.465 6.286,-4.388 10.28,-5.768c3.993,-1.381 8.356,-2.071 13.089,-2.071c5.621,0 11.044,1.109 16.27,3.328c5.226,2.218 9.712,5.201 13.459,8.948l-8.726,10.945c-3.156,-2.564 -6.409,-4.585 -9.762,-6.064c-3.352,-1.479 -7.099,-2.219 -11.241,-2.219c-4.634,0 -8.332,1.011 -11.093,3.032c-2.76,2.022 -4.141,4.807 -4.141,8.357c0,1.873 0.419,3.476 1.257,4.807c0.838,1.331 1.972,2.514 3.402,3.55c1.43,1.035 3.081,1.972 4.955,2.81c1.873,0.838 3.796,1.651 5.768,2.44l13.164,5.473c2.859,1.183 5.472,2.563 7.839,4.141c2.366,1.578 4.412,3.402 6.138,5.472c1.725,2.071 3.081,4.462 4.067,7.174c0.986,2.711 1.479,5.842 1.479,9.392c0,3.944 -0.789,7.641 -2.366,11.093c-1.578,3.451 -3.871,6.483 -6.878,9.096c-3.007,2.613 -6.656,4.683 -10.945,6.212c-4.289,1.528 -9.145,2.292 -14.568,2.292c-6.508,0 -12.794,-1.232 -18.858,-3.697c-6.064,-2.465 -11.414,-5.966 -16.048,-10.502l10.058,-11.684Z" style="fill-rule:nonzero;"/>
        <path class="logo_character logo_character_b" d="M116.656,213.649l30.912,0c5.029,0 9.638,0.42 13.829,1.258c4.191,0.838 7.839,2.169 10.945,3.993c3.106,1.824 5.522,4.265 7.247,7.321c1.726,3.057 2.588,6.804 2.588,11.241c0,4.634 -1.355,8.924 -4.067,12.868c-2.711,3.944 -6.877,6.656 -12.498,8.135l0,0.591c7.001,1.183 12.35,3.673 16.048,7.469c3.697,3.797 5.546,8.949 5.546,15.456c0,4.832 -0.936,9.023 -2.81,12.572c-1.873,3.55 -4.462,6.508 -7.765,8.875c-3.303,2.366 -7.223,4.116 -11.758,5.25c-4.536,1.134 -9.466,1.701 -14.791,1.701l-33.426,0l0,-96.73Zm29.433,40.083c6.803,0 11.709,-1.233 14.716,-3.698c3.008,-2.465 4.511,-5.965 4.511,-10.501c0,-4.437 -1.577,-7.642 -4.733,-9.614c-3.155,-1.972 -7.888,-2.958 -14.198,-2.958l-12.572,0l0,26.771l12.276,0Zm2.218,43.336c7.1,0 12.572,-1.331 16.418,-3.994c3.845,-2.662 5.768,-6.754 5.768,-12.276c0,-5.029 -1.873,-8.751 -5.62,-11.167c-3.747,-2.415 -9.269,-3.623 -16.566,-3.623l-14.494,0l0,31.06l14.494,0Z" style="fill-rule:nonzero;"/>
        <path class="logo_character logo_character_k" d="M213.829,213.649l17.157,0l0,43.928l0.444,0l34.462,-43.928l19.079,0l-29.729,37.716l34.758,59.014l-18.932,0l-26.179,-45.555l-13.903,17.305l0,28.25l-17.157,0l0,-96.73Z" style="fill-rule:nonzero;"/>
        <path class="logo_character logo_character_slash" d="M288.664,188.189l-18.572,-0.128l-57.451,-96.797l17.372,0.046l58.651,96.879Z" style="fill-rule:nonzero;"/>
    </g>
</svg>